<svg width="24" height="25" viewBox="0 0 24 25" fill="none"
    xmlns="http://www.w3.org/2000/svg">
    <g id="cart">
        <path id="Icon" d="M2.40002 2.74268C1.98581 2.74268 1.65002 3.07846 1.65002 3.49268C1.65002 3.90689 1.98581 4.24268 2.40002 4.24268V2.74268ZM4.69256 3.49268L5.41648 3.29661C5.32794 2.96969 5.03127 2.74268 4.69256 2.74268V3.49268ZM8.41793 17.2479L7.69401 17.444C7.79172 17.8047 8.14011 18.0385 8.51096 17.9921L8.41793 17.2479ZM19.8806 15.8151L19.9736 16.5593C20.2922 16.5195 20.55 16.2814 20.6151 15.967L19.8806 15.8151ZM21.6 7.50462L22.3345 7.65657C22.3802 7.43568 22.324 7.20596 22.1816 7.03105C22.0392 6.85614 21.8256 6.75462 21.6 6.75462V7.50462ZM5.77913 7.50462L5.05521 7.70068L5.77913 7.50462ZM2.40002 4.24268H4.69256V2.74268H2.40002V4.24268ZM8.51096 17.9921L19.9736 16.5593L19.7876 15.0709L8.32491 16.5037L8.51096 17.9921ZM20.6151 15.967L22.3345 7.65657L20.8656 7.35266L19.1462 15.6631L20.6151 15.967ZM3.96864 3.68874L5.05521 7.70068L6.50305 7.30856L5.41648 3.29661L3.96864 3.68874ZM5.05521 7.70068L7.69401 17.444L9.14185 17.0518L6.50305 7.30856L5.05521 7.70068ZM21.6 6.75462H5.77913V8.25462H21.6V6.75462ZM11.25 20.9999C11.25 21.4142 10.9142 21.7499 10.5 21.7499V23.2499C11.7427 23.2499 12.75 22.2426 12.75 20.9999H11.25ZM10.5 21.7499C10.0858 21.7499 9.75002 21.4142 9.75002 20.9999H8.25002C8.25002 22.2426 9.25738 23.2499 10.5 23.2499V21.7499ZM9.75002 20.9999C9.75002 20.5857 10.0858 20.2499 10.5 20.2499V18.7499C9.25738 18.7499 8.25002 19.7573 8.25002 20.9999H9.75002ZM10.5 20.2499C10.9142 20.2499 11.25 20.5857 11.25 20.9999H12.75C12.75 19.7573 11.7427 18.7499 10.5 18.7499V20.2499ZM19.25 20.9999C19.25 21.4142 18.9142 21.7499 18.5 21.7499V23.2499C19.7427 23.2499 20.75 22.2426 20.75 20.9999H19.25ZM18.5 21.7499C18.0858 21.7499 17.75 21.4142 17.75 20.9999H16.25C16.25 22.2426 17.2574 23.2499 18.5 23.2499V21.7499ZM17.75 20.9999C17.75 20.5857 18.0858 20.2499 18.5 20.2499V18.7499C17.2574 18.7499 16.25 19.7573 16.25 20.9999H17.75ZM18.5 20.2499C18.9142 20.2499 19.25 20.5857 19.25 20.9999H20.75C20.75 19.7573 19.7427 18.7499 18.5 18.7499V20.2499Z" fill="white"/>
    </g>
</svg>
