<svg width="24" height="24" viewBox="0 0 24 24" fill="none" xmlns="http://www.w3.org/2000/svg">
<g id="cart">
<path id="Icon" d="M2.40002 2.24268C1.98581 2.24268 1.65002 2.57846 1.65002 2.99268C1.65002 3.40689 1.98581 3.74268 2.40002 3.74268V2.24268ZM4.69256 2.99268L5.41648 2.79661C5.32794 2.46969 5.03127 2.24268 4.69256 2.24268V2.99268ZM8.41793 16.7479L7.69401 16.944C7.79172 17.3047 8.14011 17.5385 8.51096 17.4921L8.41793 16.7479ZM19.8806 15.3151L19.9736 16.0593C20.2922 16.0195 20.55 15.7814 20.6151 15.467L19.8806 15.3151ZM21.6 7.00462L22.3345 7.15657C22.3802 6.93568 22.324 6.70596 22.1816 6.53105C22.0392 6.35614 21.8256 6.25462 21.6 6.25462V7.00462ZM5.77913 7.00462L5.05521 7.20068L5.77913 7.00462ZM2.40002 3.74268H4.69256V2.24268H2.40002V3.74268ZM8.51096 17.4921L19.9736 16.0593L19.7876 14.5709L8.32491 16.0037L8.51096 17.4921ZM20.6151 15.467L22.3345 7.15657L20.8656 6.85266L19.1462 15.1631L20.6151 15.467ZM3.96864 3.18874L5.05521 7.20068L6.50305 6.80856L5.41648 2.79661L3.96864 3.18874ZM5.05521 7.20068L7.69401 16.944L9.14185 16.5518L6.50305 6.80856L5.05521 7.20068ZM21.6 6.25462H5.77913V7.75462H21.6V6.25462ZM11.25 20.4999C11.25 20.9142 10.9142 21.2499 10.5 21.2499V22.7499C11.7427 22.7499 12.75 21.7426 12.75 20.4999H11.25ZM10.5 21.2499C10.0858 21.2499 9.75002 20.9142 9.75002 20.4999H8.25002C8.25002 21.7426 9.25738 22.7499 10.5 22.7499V21.2499ZM9.75002 20.4999C9.75002 20.0857 10.0858 19.7499 10.5 19.7499V18.2499C9.25738 18.2499 8.25002 19.2573 8.25002 20.4999H9.75002ZM10.5 19.7499C10.9142 19.7499 11.25 20.0857 11.25 20.4999H12.75C12.75 19.2573 11.7427 18.2499 10.5 18.2499V19.7499ZM19.25 20.4999C19.25 20.9142 18.9142 21.2499 18.5 21.2499V22.7499C19.7427 22.7499 20.75 21.7426 20.75 20.4999H19.25ZM18.5 21.2499C18.0858 21.2499 17.75 20.9142 17.75 20.4999H16.25C16.25 21.7426 17.2574 22.7499 18.5 22.7499V21.2499ZM17.75 20.4999C17.75 20.0857 18.0858 19.7499 18.5 19.7499V18.2499C17.2574 18.2499 16.25 19.2573 16.25 20.4999H17.75ZM18.5 19.7499C18.9142 19.7499 19.25 20.0857 19.25 20.4999H20.75C20.75 19.2573 19.7427 18.2499 18.5 18.2499V19.7499Z" fill="#00437A"/>
</g>
</svg>
