<svg width="18" height="21" viewBox="0 0 18 21" fill="none" xmlns="http://www.w3.org/2000/svg">
<g id="Group">
<g id="Group_2">
<path id="Vector" d="M12.8256 20.46L12.8259 20.4603C13.0081 20.6425 13.3087 20.6425 13.4909 20.4603L14.6802 19.271L15.8694 20.4603C15.9619 20.5527 16.0814 20.6 16.202 20.6C16.3225 20.6 16.4421 20.5527 16.5345 20.4603L17.2954 19.6994C17.3827 19.612 17.4351 19.4929 17.4351 19.3668V6.73031C17.4351 5.74238 16.6335 4.94081 15.6456 4.94081H12.9025V0.872264C12.9025 0.612495 12.69 0.4 12.4302 0.4H1.0373C0.777534 0.4 0.565039 0.612495 0.565039 0.872264V13.5047C0.565039 14.4926 1.36661 15.2942 2.35455 15.2942H4.49813C4.7579 15.2942 4.9704 15.0817 4.9704 14.8219C4.9704 14.5622 4.7579 14.3497 4.49813 14.3497H3.93165C4.06861 14.0975 4.14814 13.808 4.14814 13.5006V6.73031C4.14814 6.26192 4.52882 5.88124 4.99721 5.88124C5.46561 5.88124 5.84628 6.26192 5.84628 6.73031V19.3628C5.84628 19.3957 5.85156 19.4273 5.85538 19.4502L5.85582 19.4528L5.85551 19.4529L5.85745 19.4606C5.85995 19.4707 5.86244 19.4793 5.86445 19.4864C5.86653 19.4936 5.86814 19.4993 5.86972 19.5056L5.87239 19.5163L5.87441 19.5203C5.87578 19.5258 5.87911 19.5379 5.88548 19.5507L5.88665 19.553C5.89301 19.5657 5.90193 19.5836 5.91191 19.5996C5.91255 19.6012 5.9133 19.603 5.91418 19.605C5.9163 19.6096 5.91977 19.6165 5.92517 19.6241C5.94149 19.6502 5.96169 19.675 5.98193 19.6953L6.74283 20.4562C6.92506 20.6384 7.22564 20.6384 7.40787 20.4562L8.59713 19.2669L9.78639 20.4562C9.96862 20.6384 10.2692 20.6384 10.4514 20.4562L11.6405 19.2671L12.8256 20.46ZM6.56594 5.87715H15.6333C16.1017 5.87715 16.4824 6.25783 16.4824 6.72622V19.17L16.1938 19.4586L15.0045 18.2693C14.8223 18.0871 14.5217 18.0871 14.3395 18.2693L13.1504 19.4584L11.9735 18.2737L11.9732 18.2734C11.791 18.0912 11.4904 18.0912 11.3082 18.2734L10.119 19.4587L8.92965 18.2693C8.83723 18.1769 8.71769 18.1296 8.59713 18.1296C8.47657 18.1296 8.35703 18.1769 8.26461 18.2693L7.07535 19.4586L6.78672 19.17V6.73031C6.78672 6.67387 6.78249 6.61827 6.77848 6.56995C6.77814 6.55666 6.77653 6.54548 6.77564 6.53926L6.77549 6.53822L6.77456 6.53121C6.77444 6.53004 6.77445 6.52973 6.77445 6.52986H6.77506L6.77384 6.51882L6.77361 6.51677C6.76966 6.48123 6.76507 6.43985 6.7557 6.39772L6.75574 6.39771L6.7551 6.39516C6.75446 6.3926 6.75405 6.39019 6.75299 6.38277L6.75287 6.38191C6.75196 6.37554 6.75052 6.36543 6.74777 6.35367C6.73942 6.30846 6.7272 6.25884 6.71075 6.21152C6.70917 6.20404 6.7065 6.19548 6.70201 6.1865C6.70099 6.18446 6.69994 6.18254 6.69889 6.18072C6.68395 6.13671 6.66811 6.09391 6.64858 6.05051C6.64669 6.04546 6.64481 6.04112 6.64333 6.03783L6.63843 6.02723C6.63704 6.02423 6.63651 6.02287 6.63636 6.02248L6.56594 5.87715ZM3.20771 6.73031V13.5047C3.20771 13.9731 2.82703 14.3538 2.35864 14.3538C1.89024 14.3538 1.50957 13.9731 1.50957 13.5047V1.34044H11.9621V4.94081H4.99721C4.00928 4.94081 3.20771 5.74238 3.20771 6.73031Z" fill="white" stroke="white" stroke-width="0.2"/>
</g>
</g>
</svg>
