<svg width="22" height="22" viewBox="0 0 22 22" fill="none" xmlns="http://www.w3.org/2000/svg">
<g id="heart">
<path id="Icon" fill-rule="evenodd" clip-rule="evenodd" d="M3.71696 5.85017C4.51708 5.05029 5.60213 4.60095 6.7335 4.60095C7.86486 4.60095 8.94991 5.05029 9.75003 5.85017L11.0002 7.09924L12.2503 5.85017C12.6439 5.44266 13.1147 5.11762 13.6352 4.894C14.1558 4.67039 14.7157 4.55269 15.2822 4.54777C15.8487 4.54285 16.4105 4.6508 16.9349 4.86533C17.4593 5.07986 17.9356 5.39668 18.3362 5.79728C18.7369 6.19789 19.0537 6.67428 19.2682 7.19863C19.4827 7.72299 19.5907 8.28482 19.5858 8.85135C19.5808 9.41787 19.4631 9.97775 19.2395 10.4983C19.0159 11.0188 18.6909 11.4897 18.2834 11.8832L11.0002 19.1675L3.71696 11.8832C2.91709 11.0831 2.46774 9.99807 2.46774 8.8667C2.46774 7.73534 2.91709 6.65029 3.71696 5.85017V5.85017Z" stroke="#00437A" stroke-width="1.5" stroke-linejoin="round"/>
</g>
</svg>
